<svg width="63" height="88" viewBox="0 0 63 88" fill="none" xmlns="http://www.w3.org/2000/svg">
<g filter="url(#filter0_d_10123_21)">
<path d="M18.1666 79.9997C25.5266 79.9997 31.4999 74.0263 31.4999 66.6663V53.333H18.1666C10.8066 53.333 4.83325 59.3063 4.83325 66.6663C4.83325 74.0263 10.8066 79.9997 18.1666 79.9997Z" fill="#0ACF83"/>
<path d="M4.83325 40.0003C4.83325 32.6403 10.8066 26.667 18.1666 26.667H31.4999V53.3337H18.1666C10.8066 53.3337 4.83325 47.3603 4.83325 40.0003Z" fill="#A259FF"/>
<path d="M4.83325 13.3333C4.83325 5.97333 10.8066 0 18.1666 0H31.4999V26.6667H18.1666C10.8066 26.6667 4.83325 20.6933 4.83325 13.3333Z" fill="#F24E1E"/>
<path d="M31.4999 0H44.8332C52.1932 0 58.1665 5.97333 58.1665 13.3333C58.1665 20.6933 52.1932 26.6667 44.8332 26.6667H31.4999V0Z" fill="#FF7262"/>
<path d="M58.1667 40.0003C58.1667 47.3603 52.1933 53.3337 44.8333 53.3337C37.4733 53.3337 31.5 47.3603 31.5 40.0003C31.5 32.6403 37.4733 26.667 44.8333 26.667C52.1933 26.667 58.1667 32.6403 58.1667 40.0003Z" fill="#1ABCFE"/>
</g>
<defs>
<filter id="filter0_d_10123_21" x="0.833252" y="0" width="61.3334" height="88" filterUnits="userSpaceOnUse" color-interpolation-filters="sRGB">
<feFlood flood-opacity="0" result="BackgroundImageFix"/>
<feColorMatrix in="SourceAlpha" type="matrix" values="0 0 0 0 0 0 0 0 0 0 0 0 0 0 0 0 0 0 127 0" result="hardAlpha"/>
<feOffset dy="4"/>
<feGaussianBlur stdDeviation="2"/>
<feComposite in2="hardAlpha" operator="out"/>
<feColorMatrix type="matrix" values="0 0 0 0 0 0 0 0 0 0 0 0 0 0 0 0 0 0 0.25 0"/>
<feBlend mode="normal" in2="BackgroundImageFix" result="effect1_dropShadow_10123_21"/>
<feBlend mode="normal" in="SourceGraphic" in2="effect1_dropShadow_10123_21" result="shape"/>
</filter>
</defs>
</svg>
